<mxfile host="app.diagrams.net" modified="2023-05-15T12:05:53.163Z" agent="Mozilla/5.0 (Windows NT 10.0; Win64; x64) AppleWebKit/537.36 (KHTML, like Gecko) Chrome/113.0.0.0 Safari/537.36" version="21.1.7" etag="2hJTEXzyMLqJFVX4a4BM" type="github">
  <diagram name="第 1 页" id="ZgAHn_tEObGGsa6-8X6F">
    <mxGraphModel>
      <root>
        <mxCell id="0" />
        <mxCell id="1" parent="0" />
      </root>
    </mxGraphModel>
  </diagram>
</mxfile>
